<svg width="130" height="80" viewBox="0 0 600 172" fill="none" xmlns="http://www.w3.org/2000/svg">
<g clip-path="url(#clip0_695_238)">
<path d="M571.037 39.9661H570.545C562.316 39.9661 554.143 42.8638 546.133 48.6319C545.777 47.9758 545.367 47.3197 544.93 46.691C542.606 43.2739 538.205 39.228 530.414 39.228C518.851 39.228 506.741 59.6759 506.741 59.6759L486.676 40.5129C486.676 40.5129 497.774 10.7979 493.1 10.7979C487.468 10.7979 482.138 12.9575 477.709 17.0033C473.089 21.2131 470.629 26.0244 470.465 31.2184C470.246 37.5058 472.57 41.333 474.593 43.4652C470.082 46.7183 466.364 51.8303 463.658 58.5551C461.908 57.4343 459.913 56.7782 457.781 56.7782C457.425 56.7782 457.097 56.7782 456.742 56.8329C456.578 55.0833 441.105 38.9 441.105 38.9C441.105 38.9 428.858 41.3876 423.555 46.2536C420.165 41.4697 415.381 38.8727 409.941 38.8727C409.531 38.8727 409.121 38.8727 408.684 38.9273C404.556 39.228 400.456 41.825 393.512 48.5225C393.184 48.8232 392.911 49.1786 392.61 49.4793C392.282 48.7686 391.899 48.1125 391.407 47.4837C390.341 46.1716 374.24 41.251 369.948 41.251L375.36 14.1603C375.36 14.1603 365.629 15.7731 359.341 19.0535C351.441 23.2634 347.176 28.02 346.247 33.5967L344.525 43.9846H344.087C339.577 43.9846 334.683 50.9008 334.683 50.9008C334.683 50.9008 324.514 39.9935 311.256 39.9935C296.33 39.9935 283.236 45.6522 272.328 56.8602C271.727 57.489 270.633 58.7465 270.633 58.7465L244.199 39.9935C244.199 39.9935 216.179 45.6522 205.271 56.8602C204.205 57.9537 202.264 60.168 202.264 60.168L180.996 38.3806H179.876C179.876 38.3806 165.086 41.0323 159.947 46.2262C157.596 42.5358 153.031 38.6266 144.174 38.3806C143.818 38.3806 143.436 38.3806 143.053 38.3806C134.934 38.3806 128.127 41.1143 122.933 46.4176C122.66 46.0349 122.359 45.6795 122.058 45.3241C119.68 42.5358 115.361 39.228 108.199 39.228C107.488 39.228 106.722 39.2554 105.984 39.3374C101.501 39.7748 96.5258 42.6178 89.801 48.5499L87.1767 50.9282L59.758 35.4829C59.758 35.4829 58.1724 35.4829 57.3523 35.5376C47.4838 35.8383 39.2281 38.5446 32.8039 43.5746C27.0906 48.0851 23.8375 53.4158 23.0721 59.4299C22.2793 66.0727 23.8102 72.3875 27.5826 78.2649C18.3975 80.3698 11.5086 88.5708 10.9892 98.3027C10.4425 108.226 15.4451 116.181 25.013 120.719C30.8084 123.425 37.7519 124.765 45.6522 124.765C46.4176 124.765 47.2104 124.765 48.0032 124.737C56.8876 124.464 64.7059 122.386 71.2394 118.614C78.3469 114.513 81.8734 109.429 83.4589 104.645C84.2243 109.101 85.9739 112.846 88.8169 115.771C92.9447 120.063 98.9041 122.222 106.504 122.222C114.103 122.222 121.02 119.789 127.881 115.005L127.936 114.951L127.99 114.896C128.291 114.677 128.592 114.459 128.893 114.24C133.157 119.434 139.007 122.222 145.759 122.222C158.799 122.222 170.28 117.52 179.958 108.253C183.785 104.59 187.174 100.271 190.181 95.4323C190.783 101.064 192.614 106.176 195.621 110.632C199.613 116.755 207.65 123.999 223.314 123.999C238.977 123.999 251.443 118.122 260.874 107.515C261.421 108.581 262.022 109.62 262.678 110.604C266.67 116.728 274.707 123.972 290.371 123.972C306.034 123.972 320.332 117.356 329.872 105.328C332.524 101.993 333.016 92.0973 331.157 88.2701C329.845 85.5638 335.941 97.838 336.05 102.622C336.16 110.932 340.069 117.657 346.739 120.992C350.238 122.742 354.366 123.589 359.314 123.589C372.08 123.589 382.249 116.482 387.252 104.125C388.619 100.763 388.619 91.2225 388.482 94.9949C388.154 103.633 390.314 110.468 394.879 115.251C399.28 119.981 405.923 122.605 414.561 123.015H415.053C418.224 123.015 421.231 121.648 423.309 119.27C425.387 116.892 426.316 113.721 425.879 110.604C425.578 108.39 425.469 105.356 425.523 101.556C425.66 97.0999 426.453 92.726 427.874 88.5435C430.526 94.6122 435.884 98.084 442.663 98.084C448.404 98.084 456.687 95.487 463.357 83.1855C465.189 79.9051 466.61 76.5153 467.622 73.1256C468.032 73.3716 468.469 73.6176 468.907 73.809C468.415 75.6132 467.704 78.2102 466.665 81.9007C464.123 90.8944 462.811 97.5373 462.674 102.212C462.483 108.062 464.041 113.037 467.321 117.028C469.781 120.008 474.374 123.617 482.165 123.617C492.444 123.617 500.672 120.008 506.112 113.447C503.214 128.619 501.683 139.007 501.492 145.021C501 161.04 509.256 170.882 523.58 171.428C523.99 171.428 524.373 171.428 524.728 171.428C533.039 171.428 544.52 168.312 552.12 153.441C553.842 150.051 553.705 145.896 551.71 142.616C549.851 139.581 546.734 137.668 543.235 137.422C542.852 136.629 542.142 134.469 542.142 129.685C542.142 127.334 542.251 124.929 542.442 122.605C542.688 122.605 542.907 122.605 543.153 122.605C544.821 122.605 546.543 122.496 548.32 122.25C563.519 120.418 575.766 113.119 584.678 100.517C590.856 91.8786 594.546 82.2287 595.667 71.8408C595.804 70.4739 595.886 69.0251 595.886 67.5489C595.886 50.3541 586.81 40.2668 570.955 39.9388L571.037 39.9661ZM32.4759 85.8372C32.4759 85.8372 32.6399 85.8372 32.7219 85.8372C32.8039 85.8372 32.8586 85.8372 32.9133 85.8372C32.7766 85.8372 32.6126 85.8372 32.4759 85.8372ZM69.7905 67.1388C69.7905 67.1388 69.7085 67.1388 69.6812 67.1388C69.7905 67.1388 69.9272 67.1388 70.0366 67.1388C69.9546 67.1388 69.8725 67.1388 69.7632 67.1388H69.7905ZM415.081 114.814H414.944C415.217 114.814 415.463 114.732 415.709 114.677C415.491 114.732 415.299 114.814 415.081 114.814Z" fill="#E8405C"/>
<path d="M73.0981 45.0511C73.6721 49.6984 71.2938 54.619 66.5646 55.8491C63.3935 56.6692 59.4024 56.4779 56.7507 54.4003C56.0126 53.8262 55.6299 52.8694 55.7666 51.94C55.9579 50.6005 57.4615 49.8897 57.4615 48.4682C57.5708 47.7575 57.1881 47.156 56.286 46.664C53.8804 45.4065 50.6273 45.9259 49.0418 48.2222C47.8663 49.9171 47.6749 52.186 48.167 54.1816C48.659 56.1772 49.8345 57.9814 51.1467 59.5669C52.9509 61.7812 54.9192 63.8861 56.9147 65.909C64.1043 73.0986 68.1228 78.1832 68.9429 81.1903C69.4076 82.9945 69.6536 84.662 69.6536 86.2202C69.6536 92.207 66.5373 96.9909 60.3045 100.599C54.9191 103.716 48.4403 105.383 40.8954 105.629C33.2138 105.875 26.817 104.782 21.6504 102.404C15.0622 99.2872 11.9458 94.4486 12.3012 87.8604C12.6292 81.6277 17.3858 76.1603 23.4273 75.2035C27.8558 74.5201 30.8355 75.7229 32.7217 77.2264C34.3346 78.4839 33.9519 80.9716 32.093 81.8737C31.0815 82.3657 29.9607 83.1312 28.8673 84.3067C27.8831 85.3728 27.4731 86.4936 27.5551 87.8604C27.6644 89.774 29.414 90.8675 32.7764 91.0862C36.3575 91.3322 39.1459 90.6214 41.1414 88.9266C43.1097 87.259 43.9845 85.0994 43.7384 82.4478C43.6291 80.5342 41.6882 77.7732 37.9977 74.1921C33.0771 69.5175 29.8514 66.1004 28.2932 63.9408C25.0675 59.3756 23.728 54.5916 24.3294 49.5617C24.7941 45.7345 27.0357 42.2628 30.9722 39.1464C36.0021 35.2099 42.5903 33.105 50.7366 32.8589C64.5143 32.3942 71.9499 36.4674 73.0161 45.0785L73.0981 45.0511Z" fill="#FFE1E8"/>
<path d="M52.9235 32.8045C65.3344 32.8045 72.0592 36.905 73.098 45.0787C73.6721 49.726 71.2938 54.6466 66.5645 55.8767C65.4437 56.1774 64.2409 56.3415 63.0107 56.3415C60.7418 56.3415 58.4728 55.7947 56.7506 54.4279C56.0125 53.8538 55.6298 52.897 55.7665 51.9676C55.9579 50.6281 57.4614 49.9173 57.4614 48.4958C57.5707 47.7851 57.188 47.1836 56.2859 46.6916C55.4385 46.2542 54.4817 46.0355 53.5249 46.0355C51.8027 46.0355 50.0805 46.7736 49.0417 48.2498C47.8662 49.9447 47.6748 52.2136 48.1669 54.2092C48.6863 56.2048 49.8344 58.009 51.1466 59.5945C52.9508 61.8088 54.9191 63.9137 56.9146 65.9366C64.1042 73.1262 68.1227 78.2108 68.9428 81.2179C69.4075 83.0221 69.6535 84.6896 69.6535 86.2478C69.6535 92.2346 66.5372 97.0185 60.3044 100.627C54.9191 103.743 48.4403 105.411 40.8953 105.657C40.1846 105.657 39.5012 105.684 38.8177 105.684C32.0656 105.684 26.3522 104.591 21.6776 102.404C15.0895 99.2874 11.9731 94.4488 12.3285 87.8607C12.6565 81.6279 17.4131 76.1606 23.4545 75.2038C24.3293 75.0671 25.1494 75.0124 25.9148 75.0124C29.0312 75.0124 31.2455 76.0239 32.7763 77.2267C34.3892 78.4842 34.0065 80.9718 32.1476 81.8739C31.1361 82.366 30.0153 83.1314 28.9218 84.3069C27.9377 85.373 27.5277 86.4939 27.6097 87.8607C27.719 89.7743 29.4686 90.8677 32.831 91.0864C33.2957 91.1138 33.7331 91.1411 34.1432 91.1411C37.0955 91.1411 39.4465 90.403 41.1687 88.9268C43.1369 87.2593 44.0117 85.0997 43.7657 82.448C43.6563 80.5344 41.7154 77.7734 38.025 74.1923C33.1044 69.5177 29.8786 66.1007 28.3204 63.9411C25.0947 59.3758 23.7552 54.5919 24.3566 49.5619C24.8213 45.7348 27.0629 42.263 30.9994 39.1467C36.0294 35.2102 42.6175 33.1052 50.7639 32.8592C51.4746 32.8592 52.1854 32.8319 52.8688 32.8319M52.8688 24.6309C52.076 24.6309 51.2833 24.6309 50.4632 24.6855C40.5946 24.9862 32.3389 27.6926 25.9148 32.7225C20.2014 37.2331 16.9484 42.5637 16.1829 48.5778C15.3902 55.2206 16.921 61.5354 20.6935 67.4128C11.5904 69.4631 4.70151 77.6641 4.15478 87.3686C3.60804 97.2919 8.61066 105.247 18.1785 109.785C23.9739 112.491 30.9174 113.831 38.8177 113.831C39.5832 113.831 40.3759 113.831 41.1687 113.803C50.0531 113.53 57.8714 111.452 64.4049 107.68C75.5309 101.256 77.8546 92.4533 77.8546 86.1931C77.8546 83.9242 77.5265 81.5459 76.8705 79.0583C76.0503 76.1606 74.1641 72.1967 66.6739 64.1871C67.3299 64.0777 67.986 63.9411 68.6148 63.777C76.9251 61.5901 82.3378 53.1157 81.217 44.0399C80.3149 36.7684 75.4216 24.6035 52.9235 24.6035L52.8688 24.6309Z" fill="#E8405C"/>
<path d="M73.0981 45.0511C73.6721 49.6984 71.2938 54.619 66.5646 55.8491C63.3935 56.6692 59.4024 56.4779 56.7507 54.4003C56.0126 53.8262 55.6299 52.8694 55.7666 51.94C55.9579 50.6005 57.4615 49.8897 57.4615 48.4682C57.5708 47.7575 57.1881 47.156 56.286 46.664C53.8804 45.4065 50.6273 45.9259 49.0418 48.2222C47.8663 49.9171 47.6749 52.186 48.167 54.1816C48.659 56.1772 49.8345 57.9814 51.1467 59.5669C52.9509 61.7812 54.9192 63.8861 56.9147 65.909C64.1043 73.0986 68.1228 78.1832 68.9429 81.1903C69.4076 82.9945 69.6536 84.662 69.6536 86.2202C69.6536 92.207 66.5373 96.9909 60.3045 100.599C54.9191 103.716 48.4403 105.383 40.8954 105.629C33.2138 105.875 26.817 104.782 21.6504 102.404C15.0622 99.2872 11.9458 94.4486 12.3012 87.8604C12.6292 81.6277 17.3858 76.1603 23.4273 75.2035C27.8558 74.5201 30.8355 75.7229 32.7217 77.2264C34.3346 78.4839 33.9519 80.9716 32.093 81.8737C31.0815 82.3657 29.9607 83.1312 28.8673 84.3067C27.8831 85.3728 27.4731 86.4936 27.5551 87.8604C27.6644 89.774 29.414 90.8675 32.7764 91.0862C36.3575 91.3322 39.1459 90.6214 41.1414 88.9266C43.1097 87.259 43.9845 85.0994 43.7384 82.4478C43.6291 80.5342 41.6882 77.7732 37.9977 74.1921C33.0771 69.5175 29.8514 66.1004 28.2932 63.9408C25.0675 59.3756 23.728 54.5916 24.3294 49.5617C24.7941 45.7345 27.0357 42.2628 30.9722 39.1464C36.0021 35.2099 42.5903 33.105 50.7366 32.8589C64.5143 32.3942 71.9499 36.4674 73.0161 45.0785L73.0981 45.0511Z" fill="#FFE1E8"/>
<path d="M52.9235 32.8045C65.3344 32.8045 72.0592 36.905 73.098 45.0787C73.6721 49.726 71.2938 54.6466 66.5645 55.8767C65.4437 56.1774 64.2409 56.3415 63.0107 56.3415C60.7418 56.3415 58.4728 55.7947 56.7506 54.4279C56.0125 53.8538 55.6298 52.897 55.7665 51.9676C55.9579 50.6281 57.4614 49.9173 57.4614 48.4958C57.5707 47.7851 57.188 47.1836 56.2859 46.6916C55.4385 46.2542 54.4817 46.0355 53.5249 46.0355C51.8027 46.0355 50.0805 46.7736 49.0417 48.2498C47.8662 49.9447 47.6748 52.2136 48.1669 54.2092C48.6863 56.2048 49.8344 58.009 51.1466 59.5945C52.9508 61.8088 54.9191 63.9137 56.9146 65.9366C64.1042 73.1262 68.1227 78.2108 68.9428 81.2179C69.4075 83.0221 69.6535 84.6896 69.6535 86.2478C69.6535 92.2346 66.5372 97.0185 60.3044 100.627C54.9191 103.743 48.4403 105.411 40.8953 105.657C40.1846 105.657 39.5012 105.684 38.8177 105.684C32.0656 105.684 26.3522 104.591 21.6776 102.404C15.0895 99.2874 11.9731 94.4488 12.3285 87.8607C12.6565 81.6279 17.4131 76.1606 23.4545 75.2038C24.3293 75.0671 25.1494 75.0124 25.9148 75.0124C29.0312 75.0124 31.2455 76.0239 32.7763 77.2267C34.3892 78.4842 34.0065 80.9718 32.1476 81.8739C31.1361 82.366 30.0153 83.1314 28.9218 84.3069C27.9377 85.373 27.5277 86.4939 27.6097 87.8607C27.719 89.7743 29.4686 90.8677 32.831 91.0864C33.2957 91.1138 33.7331 91.1411 34.1432 91.1411C37.0955 91.1411 39.4465 90.403 41.1687 88.9268C43.1369 87.2593 44.0117 85.0997 43.7657 82.448C43.6563 80.5344 41.7154 77.7734 38.025 74.1923C33.1044 69.5177 29.8786 66.1007 28.3204 63.9411C25.0947 59.3758 23.7552 54.5919 24.3566 49.5619C24.8213 45.7348 27.0629 42.263 30.9994 39.1467C36.0294 35.2102 42.6175 33.1052 50.7639 32.8592C51.4746 32.8592 52.1854 32.8319 52.8688 32.8319M52.8688 24.6309C52.076 24.6309 51.2833 24.6309 50.4632 24.6855C40.5946 24.9862 32.3389 27.6926 25.9148 32.7225C20.2014 37.2331 16.9484 42.5637 16.1829 48.5778C15.3902 55.2206 16.921 61.5354 20.6935 67.4128C11.5904 69.4631 4.70151 77.6641 4.15478 87.3686C3.60804 97.2919 8.61066 105.247 18.1785 109.785C23.9739 112.491 30.9174 113.831 38.8177 113.831C39.5832 113.831 40.3759 113.831 41.1687 113.803C50.0531 113.53 57.8714 111.452 64.4049 107.68C75.5309 101.256 77.8546 92.4533 77.8546 86.1931C77.8546 83.9242 77.5265 81.5459 76.8705 79.0583C76.0503 76.1606 74.1641 72.1967 66.6739 64.1871C67.3299 64.0777 67.986 63.9411 68.6148 63.777C76.9251 61.5901 82.3378 53.1157 81.217 44.0399C80.3149 36.7684 75.4216 24.6035 52.9235 24.6035L52.8688 24.6309Z" fill="#E8405C"/>
<path d="M187.256 50.6274C187.119 54.9466 185.589 60.6873 182.582 67.8769C178.754 77.5814 173.724 85.4271 167.519 91.4138C159.4 99.2048 149.887 103.087 138.979 103.087C134.688 103.087 131.161 101.419 128.4 98.0566C125.994 95.1863 124.874 92.1246 124.983 88.8988C123.179 91.6598 120.336 94.4755 116.372 97.3459C110.877 101.2 105.301 103.087 99.6966 103.087C89.1719 103.087 84.0873 97.9473 84.4427 87.6413C84.552 84.0329 85.5362 78.7842 87.3951 71.8134C89.3633 64.3778 90.3748 60.4413 90.3748 59.9492C90.3748 56.8329 89.2813 55.2747 87.149 55.2747C86.8483 55.2747 85.0168 55.0833 82.9665 54.8646C80.6155 54.6186 79.6588 51.6936 81.4083 50.108C83.7319 48.0031 86.0829 45.8708 88.4065 43.7659C93.5458 39.2007 97.4003 36.8224 99.9153 36.5763C103.879 36.221 106.886 37.2598 108.991 39.7201C111.096 42.1804 112.08 45.3788 111.943 49.3426C111.834 52.459 111.151 57.1882 109.975 63.5304C108.772 69.8998 108.116 74.1917 108.007 76.4606C107.898 80.7798 109.073 82.9394 111.588 82.9394C114.95 82.9394 118.204 80.3698 121.375 75.2031C124.546 70.0638 126.241 64.9792 126.487 59.9219C126.596 58.1177 126.159 56.5322 125.147 55.1653C124.136 53.7985 122.714 53.0877 120.91 53.0877C120.445 53.0877 119.953 53.0877 119.461 53.1697C117.383 53.3884 115.935 51.1468 116.755 49.2332C120.773 39.8568 127.553 35.3462 137.093 35.6469C141.768 35.7836 144.884 37.2598 146.442 40.1301C147.509 42.1804 148.001 45.6521 147.864 50.5454C147.755 53.4158 146.934 58.063 145.431 64.4598C143.927 70.8839 143.189 74.9844 143.189 76.7613C143.08 80.8345 144.802 82.8848 148.411 82.8848C151.746 82.8848 155.026 80.3151 158.197 75.1485C161.368 70.0092 163.09 64.9245 163.309 59.8672C163.446 58.063 162.981 56.4775 161.97 55.1106C160.958 53.7438 159.537 53.0331 157.76 53.0331C157.268 53.0331 156.803 53.0331 156.311 53.1151C154.233 53.3338 152.784 51.0921 153.605 49.2059C157.596 39.8294 164.375 35.3189 173.943 35.6196C183.156 35.8656 187.611 40.8409 187.229 50.5454L187.256 50.6274Z" fill="#FFE1E8"/>
<path d="M173.041 35.7019C173.342 35.7019 173.642 35.7019 173.943 35.7019C183.156 35.948 187.611 40.9233 187.229 50.6278C187.092 54.947 185.561 60.6877 182.554 67.8773C178.727 77.5818 173.697 85.4274 167.492 91.4142C159.373 99.2051 149.859 103.087 138.952 103.087C134.66 103.087 131.134 101.419 128.373 98.057C125.967 95.1867 124.846 92.1249 124.956 88.8992C123.151 91.6602 120.308 94.4759 116.345 97.3462C110.85 101.201 105.273 103.087 99.6692 103.087C89.1446 103.087 84.06 97.9477 84.4153 87.6417C84.5247 84.0333 85.5088 78.7846 87.3677 71.8138C89.3359 64.3782 90.3474 60.4417 90.3474 59.9496C90.3474 56.8332 89.2539 55.275 87.1217 55.275C86.821 55.275 84.9894 55.0837 82.9392 54.865C80.5882 54.619 79.6314 51.6939 81.381 50.1084C83.7046 48.0035 86.0555 45.8712 88.3792 43.7663C93.5185 39.2011 97.3729 36.8228 99.8879 36.5767C100.38 36.5221 100.872 36.4947 101.364 36.4947C104.617 36.4947 107.132 37.5608 108.964 39.7204C111.069 42.1808 112.053 45.3791 111.916 49.343C111.807 52.4594 111.123 57.1886 109.948 63.5307C108.745 69.9002 108.089 74.192 107.98 76.461C107.87 80.7802 109.046 82.9398 111.561 82.9398C114.923 82.9398 118.176 80.3701 121.347 75.2035C124.518 70.0642 126.213 64.9796 126.459 59.9223C126.569 58.1181 126.131 56.5325 125.12 55.1657C124.108 53.7989 122.687 53.0881 120.883 53.0881C120.418 53.0881 119.926 53.0881 119.434 53.1701C119.324 53.1701 119.242 53.1701 119.16 53.1701C117.247 53.1701 115.962 51.0652 116.727 49.2336C120.609 40.1578 127.088 35.6199 136.136 35.6199C136.437 35.6199 136.738 35.6199 137.039 35.6199C141.713 35.7566 144.829 37.2328 146.388 40.1032C147.454 42.1534 147.946 45.6252 147.809 50.5184C147.7 53.3888 146.88 58.036 145.376 64.4328C143.873 70.857 143.135 74.9575 143.135 76.7344C143.025 80.8075 144.747 82.8578 148.356 82.8578C151.691 82.8578 154.971 80.2881 158.142 75.1215C161.314 69.9822 163.036 64.8976 163.254 59.8403C163.391 58.036 162.926 56.4505 161.915 55.0837C160.903 53.7168 159.482 53.0061 157.705 53.0061C157.213 53.0061 156.748 53.0061 156.256 53.0881C156.147 53.0881 156.065 53.0881 155.983 53.0881C154.069 53.0881 152.784 50.9832 153.55 49.1516C157.432 40.0758 163.911 35.5379 172.959 35.5379M172.959 27.3369C164.922 27.3369 158.17 30.0159 153.031 35.1826C150.68 31.4921 146.114 27.5829 137.257 27.3369C136.902 27.3369 136.519 27.3369 136.136 27.3369C128.017 27.3369 121.211 30.0706 116.044 35.3739C115.771 34.9912 115.47 34.6358 115.169 34.2804C112.791 31.4921 108.472 28.1844 101.309 28.1844C100.599 28.1844 99.8333 28.2117 99.0952 28.2937C94.6119 28.7311 89.6367 31.5741 82.9118 37.5062L75.8316 43.903C72.6332 46.8007 71.4577 51.3112 72.7699 55.3844C74.0274 59.2115 77.2805 62.0272 81.1896 62.7653C80.7796 64.3508 80.2055 66.5378 79.4127 69.5721C77.3625 77.1717 76.3237 82.9671 76.187 87.2317C75.941 94.5852 77.8545 100.49 81.955 104.7C86.0829 108.992 92.0423 111.151 99.6419 111.151C107.241 111.151 114.158 108.718 121.019 103.934L121.074 103.88L121.129 103.825C121.429 103.606 121.73 103.388 122.031 103.169C126.295 108.363 132.145 111.151 138.897 111.151C151.937 111.151 163.418 106.449 173.096 97.1822C180.149 90.3754 185.862 81.5183 190.099 70.8023C193.489 62.656 195.211 56.0951 195.375 50.7098C195.648 43.5476 193.817 37.8069 189.935 33.679C186.163 29.6605 180.832 27.5556 174.107 27.3643C173.752 27.3643 173.369 27.3643 172.986 27.3643L172.959 27.3369ZM153.222 66.8931C153.277 66.6744 153.331 66.4831 153.359 66.2644C153.796 64.4328 154.151 62.7653 154.479 61.2071C154.616 61.2071 154.753 61.2344 154.889 61.2618C154.616 63.0933 154.069 64.9796 153.222 66.9205V66.8931Z" fill="#E8405C"/>
<path d="M216.534 104.891C206.829 104.891 199.886 101.665 195.676 95.1863C192.696 90.7577 191.247 85.4818 191.357 79.3583C191.466 69.6538 195.785 60.4413 204.287 51.6936C213.636 42.0984 224.653 37.3145 237.337 37.3145C249.065 37.3145 255.297 42.0984 256.036 51.6936C256.5 57.7897 253.165 64.0771 245.976 70.5559C238.294 77.6361 228.671 82.1193 217.026 84.0329C219.186 87.0399 228.289 88.1334 232.608 88.1334C236.927 88.1334 242.23 86.6026 246.55 85.0444C249.147 84.1149 251.279 87.1766 249.584 89.3362C244.253 96.0611 233.947 104.863 216.507 104.863L216.534 104.891ZM234.877 57.817C234.986 54.5913 233.674 52.9784 230.94 52.9784C227.332 52.9784 223.696 55.466 219.978 60.4413C216.261 65.4166 214.347 70.1732 214.238 74.7384V77.062C220.088 74.9024 225.2 71.622 229.519 67.1935C232.991 63.3663 234.795 60.25 234.904 57.8443L234.877 57.817Z" fill="#FFE1E8"/>
<path d="M237.392 37.3143C249.119 37.3143 255.352 42.0982 256.09 51.6934C256.555 57.7895 253.22 64.0769 246.03 70.5557C238.349 77.636 228.726 82.1192 217.081 84.0327C219.24 87.0398 228.343 88.1333 232.663 88.1333C236.982 88.1333 242.285 86.6024 246.604 85.0442C246.932 84.9349 247.26 84.8802 247.561 84.8802C249.693 84.8802 251.115 87.4772 249.639 89.3634C244.308 96.0882 234.002 104.891 216.561 104.891C206.857 104.891 199.913 101.665 195.703 95.1861C192.724 90.7576 191.275 85.4816 191.384 79.3582C191.493 69.6536 195.813 60.4412 204.314 51.6934C213.664 42.0982 224.68 37.3143 237.364 37.3143M214.183 77.0345C220.033 74.875 225.145 71.5945 229.464 67.166C232.936 63.3389 234.74 60.2225 234.849 57.8168C234.959 54.5911 233.647 52.9782 230.913 52.9782C227.305 52.9782 223.669 55.4659 219.951 60.4412C216.233 65.4164 214.32 70.173 214.21 74.7383V77.0619M237.392 29.1406C222.466 29.1406 209.372 34.7993 198.464 46.0074C188.486 56.2586 183.347 67.4667 183.21 79.3035C183.046 87.0125 184.96 93.9013 188.869 99.7514C192.86 105.875 200.897 113.119 216.561 113.119C232.225 113.119 246.522 106.504 256.063 94.4754C258.714 91.1403 259.206 86.7118 257.348 82.8846C256.035 80.1783 253.657 78.1554 250.896 77.2259C251.115 77.0072 251.361 76.8159 251.58 76.5972C260.655 68.4235 264.947 59.8124 264.264 51.0647C263.772 44.4765 260.163 29.1133 237.392 29.1133V29.1406Z" fill="#E8405C"/>
<path d="M283.618 104.891C273.914 104.891 266.97 101.665 262.76 95.1863C259.781 90.7577 258.332 85.4818 258.441 79.3583C258.55 69.6538 262.87 60.4413 271.371 51.6936C280.72 42.0984 291.737 37.3145 304.421 37.3145C316.149 37.3145 322.382 42.0984 323.12 51.6936C323.584 57.7897 320.249 64.0771 313.06 70.5559C305.378 77.6361 295.756 82.1193 284.11 84.0329C286.27 87.0399 295.373 88.1334 299.692 88.1334C304.011 88.1334 309.315 86.6026 313.634 85.0444C316.231 84.1149 318.363 87.1766 316.668 89.3362C311.338 96.0611 301.032 104.863 283.591 104.863L283.618 104.891ZM301.961 57.817C302.07 54.5913 300.758 52.9784 298.025 52.9784C294.416 52.9784 290.78 55.466 287.063 60.4413C283.345 65.4166 281.431 70.1732 281.322 74.7384V77.062C287.172 74.9024 292.284 71.622 296.603 67.1935C300.075 63.3663 301.879 60.25 301.988 57.8443L301.961 57.817Z" fill="#FFE1E8"/>
<path d="M304.449 37.3143C316.176 37.3143 322.409 42.0982 323.147 51.6934C323.612 57.7895 320.277 64.0769 313.087 70.5557C305.405 77.636 295.783 82.1192 284.137 84.0327C286.297 87.0398 295.4 88.1333 299.719 88.1333C304.039 88.1333 309.342 86.6024 313.661 85.0442C313.989 84.9349 314.317 84.8802 314.618 84.8802C316.75 84.8802 318.172 87.4772 316.696 89.3634C311.365 96.0882 301.059 104.891 283.618 104.891C273.914 104.891 266.97 101.665 262.76 95.1861C259.78 90.7576 258.332 85.4816 258.441 79.3582C258.55 69.6536 262.87 60.4412 271.371 51.6934C280.72 42.0982 291.737 37.3143 304.421 37.3143M281.24 77.0345C287.09 74.875 292.202 71.5945 296.521 67.166C299.993 63.3389 301.797 60.2225 301.906 57.8168C302.016 54.5911 300.704 52.9782 297.97 52.9782C294.361 52.9782 290.726 55.4659 287.008 60.4412C283.29 65.4164 281.376 70.173 281.267 74.7383V77.0619M304.449 29.1406C289.523 29.1406 276.429 34.7993 265.521 46.0074C255.543 56.2586 250.404 67.4667 250.267 79.3035C250.103 87.0125 252.017 93.9013 255.926 99.7514C259.917 105.875 267.954 113.119 283.618 113.119C299.282 113.119 313.579 106.504 323.12 94.4754C325.771 91.1403 326.263 86.7118 324.404 82.8846C323.092 80.1783 320.714 78.1554 317.953 77.2259C318.172 77.0072 318.418 76.8159 318.636 76.5972C327.712 68.4235 332.004 59.8124 331.321 51.0647C330.829 44.4765 327.22 29.1133 304.449 29.1133V29.1406Z" fill="#E8405C"/>
<path d="M352.589 104.563C349.527 104.563 346.41 104.208 343.649 102.813C339.303 100.654 337.553 96.2526 337.499 91.6054C337.362 85.5093 339.221 79.6319 343.075 57.5711H335.694C334.382 57.5711 333.836 56.9697 334.082 55.7669L335.694 42.5633C335.831 41.7159 336.35 41.3058 337.307 41.3058H340.041C342.72 41.3058 344.989 39.3649 345.426 36.7406L347.531 24.0563C347.996 21.186 350.948 18.3156 356.334 15.4179C361.364 12.7936 365.437 11.4541 368.553 11.4541C370.221 11.4541 370.931 11.9462 370.713 12.9029C369.619 18.1789 367.651 27.6374 364.781 41.3058H376.809C378.121 41.3058 378.668 41.9072 378.422 43.11L376.809 56.3137C376.809 57.1611 376.344 57.5711 375.387 57.5711H362.621C361.61 62.8198 360.598 68.0685 359.805 73.3444C359.313 76.6248 358.985 79.9053 358.603 83.1857C358.521 83.8417 358.439 84.5525 358.685 85.1812C358.985 86.0013 359.751 86.6028 360.598 86.8761C362.539 87.5322 366.667 87.0401 369.893 86.4934C372.025 86.138 373.72 88.2156 372.9 90.2112C370.631 95.8152 365.081 104.536 352.589 104.563Z" fill="#FFE1E8"/>
<path d="M368.581 11.4813C370.248 11.4813 370.959 11.9733 370.74 12.9301C369.647 18.2061 367.678 27.6646 364.808 41.333H376.836C378.148 41.333 378.695 41.9344 378.449 43.1372L376.836 56.3408C376.836 57.1883 376.371 57.5983 375.415 57.5983H362.648C361.637 62.847 360.625 68.0956 359.833 73.3716C359.341 76.652 359.013 79.9324 358.63 83.2128C358.548 83.8689 358.466 84.5797 358.712 85.2084C359.013 86.0285 359.778 86.6299 360.626 86.9033C361.282 87.122 362.184 87.204 363.25 87.204C365.273 87.204 367.788 86.876 369.92 86.4932C370.084 86.4659 370.248 86.4386 370.412 86.4386C372.298 86.4386 373.692 88.3521 372.927 90.211C370.658 95.8151 365.109 104.535 352.616 104.563H352.589C349.527 104.563 346.438 104.207 343.677 102.813C339.33 100.654 337.581 96.2524 337.526 91.6052C337.389 85.5091 339.248 79.6317 343.103 57.571H335.722C334.41 57.571 333.863 56.9696 334.109 55.7668L335.722 42.5631C335.858 41.7157 336.378 41.3056 337.335 41.3056H340.068C342.747 41.3056 345.016 39.3647 345.454 36.7404L347.559 24.0562C348.023 21.1858 350.976 18.3155 356.361 15.4178C361.391 12.7934 365.464 11.4539 368.581 11.4539M368.581 3.25293C364.097 3.25293 358.849 4.8658 352.561 8.1462C344.661 12.3561 340.396 17.1126 339.467 22.6893L337.745 33.0773H337.307C332.305 33.0773 328.314 36.467 327.575 41.3056V41.5517L325.963 54.5366C325.498 57.407 326.181 60.1406 327.903 62.2456C328.751 63.2844 330.473 64.8972 333.289 65.4986C332.66 68.8884 332.113 71.7587 331.621 74.2737C330.008 82.7208 329.188 86.958 329.27 91.7419C329.38 100.052 333.289 106.777 339.959 110.112C343.458 111.862 347.586 112.709 352.534 112.709C365.3 112.709 375.469 105.602 380.472 93.2454C381.839 89.8557 381.456 86.0558 379.406 83.0488C377.356 80.0144 373.966 78.2102 370.33 78.2102C369.701 78.2102 369.073 78.2649 368.471 78.3742C368.088 78.4289 367.706 78.5109 367.35 78.5656C367.514 77.1988 367.678 75.8593 367.897 74.5471C368.334 71.6494 368.854 68.697 369.401 65.7447H375.387C380.636 65.7447 384.654 62.0269 385.01 56.9696L386.568 44.3127C387.033 41.4423 386.349 38.736 384.627 36.6037C383.561 35.2916 381.128 33.1046 376.836 33.1046H374.895C376.672 24.7123 377.93 18.5615 378.75 14.6523C379.351 11.9187 378.75 9.13032 377.055 6.97072C375.715 5.27585 373.173 3.25293 368.581 3.25293Z" fill="#E8405C"/>
<path d="M449.306 54.7013C451.383 53.1705 454.226 54.9747 453.652 57.4897C452.86 61.1255 451.438 64.7612 449.388 68.4244C445.561 75.5046 441.05 79.031 435.911 79.031C432.302 79.031 429.869 77.4181 428.53 74.1924C428.175 73.345 427.436 70.2833 426.37 65.0346C425.769 61.8089 424.621 60.1687 422.953 60.1687C421.04 60.1687 418.634 63.1484 415.764 69.1351C412.538 75.8599 410.788 82.9675 410.57 90.5398C410.488 94.8043 410.624 98.2487 410.98 100.873C411.226 102.568 409.832 104.044 408.137 103.989C401.685 103.689 396.983 101.939 394.031 98.7681C391.051 95.6244 389.657 90.8678 389.903 84.471C390.012 81.2179 390.696 76.8167 391.871 71.2674C393.074 65.718 393.73 61.3715 393.84 58.2278C393.976 56.0408 393.129 54.9747 391.325 54.9747C391.161 54.9747 390.915 55.0567 390.587 55.2207C388.427 56.2869 386.049 53.9906 386.951 51.7216C387.99 49.0973 389.684 46.1723 392.418 43.6026C397.339 38.846 400.674 36.4131 402.478 36.3037C405.704 36.0577 408.355 37.5339 410.378 40.7049C412.046 43.5206 412.893 46.8284 412.893 50.6008C412.893 51.6943 412.839 52.7331 412.729 53.7172C417.295 47.4844 420.11 43.794 421.176 42.5912C425.249 38.4086 429.623 36.3037 434.298 36.3037C438.016 36.3037 440.339 38.0533 441.296 41.525C441.542 44.6414 441.843 47.7578 442.198 50.8742C442.554 54.346 444.002 56.0955 446.517 56.0955C447.201 56.0955 448.103 55.6581 449.306 54.7833V54.7013Z" fill="#FFE1E8"/>
<path d="M403.162 36.2215C406.087 36.2215 408.519 37.6977 410.406 40.6501C412.073 43.4658 412.921 46.7735 412.921 50.546C412.921 51.6395 412.866 52.6782 412.757 53.6624C417.322 47.4296 420.138 43.7391 421.204 42.5363C425.277 38.3538 429.651 36.2489 434.325 36.2489C438.043 36.2489 440.367 37.9984 441.324 41.4702C441.57 44.5866 441.87 47.703 442.226 50.8194C442.581 54.2911 444.03 56.0407 446.545 56.0407C447.228 56.0407 448.13 55.6033 449.333 54.7285C449.853 54.3458 450.454 54.1544 451.001 54.1544C452.641 54.1544 454.09 55.6306 453.68 57.4895C452.887 61.1253 451.465 64.7611 449.415 68.4242C445.588 75.5044 441.078 79.0309 435.938 79.0309C432.33 79.0309 429.897 77.418 428.557 74.1923C428.202 73.3448 427.464 70.2831 426.398 65.0344C425.796 61.8087 424.648 60.1685 422.981 60.1685C421.067 60.1685 418.661 63.1482 415.791 69.135C412.565 75.8598 410.816 82.9673 410.597 90.5396C410.515 94.8041 410.652 98.2486 411.007 100.873C411.226 102.513 409.941 103.989 408.301 103.989H408.164C401.713 103.689 397.011 101.939 394.058 98.768C391.079 95.6242 389.685 90.8676 389.931 84.4709C390.04 81.2178 390.723 76.8166 391.899 71.2672C393.102 65.7179 393.758 61.3713 393.867 58.2276C394.004 56.0407 393.156 54.9745 391.352 54.9745C391.188 54.9745 390.942 55.0565 390.614 55.2206C390.231 55.4119 389.849 55.4939 389.493 55.4939C387.716 55.4939 386.24 53.5804 386.978 51.7215C388.017 49.0971 389.712 46.1721 392.446 43.6025C397.366 38.8459 400.701 36.4129 402.505 36.3036C402.724 36.3036 402.943 36.3036 403.162 36.3036M403.162 28.1025C402.751 28.1025 402.341 28.1025 401.904 28.1572C397.776 28.4579 393.676 31.0549 386.732 37.7524C383.561 40.7321 381.073 44.4499 379.351 48.7144C378.012 52.0768 378.422 55.8766 380.445 58.8837C381.648 60.6332 383.26 62.0001 385.147 62.8202C384.846 64.7611 384.409 67.03 383.862 69.5997C382.55 75.6684 381.839 80.4797 381.702 84.2248C381.374 92.8632 383.534 99.6974 388.099 104.481C392.5 109.211 399.143 111.835 407.781 112.245H408.273C411.445 112.245 414.452 110.878 416.529 108.5C418.607 106.122 419.536 102.95 419.099 99.8341C418.798 97.6198 418.689 94.5854 418.743 90.7856C418.88 86.3298 419.673 81.9559 421.094 77.7734C423.746 83.8421 429.104 87.3139 435.884 87.3139C441.624 87.3139 449.907 84.7169 456.577 72.4154C458.956 68.1508 460.678 63.7223 461.635 59.3211C462.346 56.0407 461.58 52.7056 459.502 50.1086C457.398 47.5116 454.281 46.0081 450.946 46.0081C450.591 46.0081 450.263 46.0081 449.907 46.0628C449.743 44.3132 449.579 42.591 449.47 40.9235L449.415 40.1307L449.197 39.3653C447.256 32.3397 441.679 28.1572 434.298 28.1572C427.929 28.1572 422.051 30.6449 416.748 35.5381C413.358 30.7542 408.574 28.1572 403.134 28.1572L403.162 28.1025Z" fill="#E8405C"/>
<path d="M475.467 104.536C471.749 104.536 468.906 103.333 466.938 100.927C464.97 98.5217 464.013 95.4053 464.15 91.5782C464.259 87.6417 465.489 81.5182 467.84 73.2352C470.164 64.9795 471.339 60.551 471.339 59.9496C471.339 56.8332 470.273 55.275 468.114 55.275C468.032 55.275 467.895 55.3297 467.731 55.4117C465.517 56.4231 463.166 54.2635 464.013 51.9673C466.446 45.3791 471.476 36.5767 480.88 36.5767C484.844 36.5767 487.741 37.3968 489.6 40.0758C491.459 42.7548 492.143 46.2812 491.678 50.5731C490.12 57.872 488.452 67.1665 486.648 78.4292C484.215 88.4344 489.464 86.8489 493.728 84.2246C495.806 82.9671 498.321 84.7987 497.801 87.1769C496.27 94.2025 491.322 104.481 475.494 104.481L475.467 104.536ZM493.564 16.6209C493.455 19.4366 492.197 22.1429 489.792 24.7399C487.085 27.6649 483.86 29.1411 480.142 29.1411C474.428 29.1411 471.667 26.3254 471.859 20.694C471.968 17.769 473.499 14.926 476.451 12.2197C479.404 9.51333 482.711 8.17383 486.32 8.17383C488.425 8.17383 490.174 9.10328 491.596 10.9622C493.017 12.8211 493.646 14.7073 493.564 16.6209Z" fill="#FFE1E8"/>
<path d="M486.32 8.17366C488.425 8.17366 490.174 9.10311 491.596 10.962C492.99 12.8209 493.646 14.7071 493.564 16.6207C493.455 19.4364 492.197 22.1427 489.792 24.7397C487.085 27.6647 483.859 29.1409 480.142 29.1409C474.428 29.1409 471.667 26.3252 471.859 20.6939C471.968 17.7688 473.499 14.9258 476.451 12.2195C479.404 9.51316 482.711 8.17366 486.32 8.17366ZM480.852 36.6038C484.816 36.6038 487.714 37.424 489.573 40.1029C491.432 42.7819 492.115 46.3084 491.65 50.6003C490.092 57.8992 488.425 67.1936 486.62 78.4564C485.172 84.3611 486.429 86.22 488.561 86.22C490.038 86.22 491.951 85.3179 493.701 84.2517C494.165 83.9784 494.657 83.8417 495.122 83.8417C496.762 83.8417 498.184 85.3726 497.774 87.2041C496.243 94.2297 491.295 104.508 475.467 104.508C471.749 104.508 468.906 103.305 466.938 100.9C464.97 98.4942 464.013 95.3778 464.15 91.5507C464.259 87.6142 465.489 81.4907 467.84 73.2077C470.164 64.952 471.339 60.5235 471.339 59.9221C471.339 56.8057 470.273 55.2475 468.113 55.2475C468.031 55.2475 467.895 55.3022 467.731 55.3842C467.348 55.5482 466.965 55.6302 466.583 55.6302C464.806 55.6302 463.302 53.826 464.013 51.9397C466.446 45.3516 471.476 36.5492 480.88 36.5492M486.347 -0.0820312C480.716 -0.0820312 475.385 2.07757 470.957 6.1234C466.337 10.3333 463.876 15.1445 463.712 20.3385C463.494 26.6259 465.817 30.4531 467.84 32.5854C463.029 36.0844 459.092 41.6611 456.331 49.0967C455.101 52.4591 455.566 56.2043 457.589 59.1293C458.764 60.8242 460.377 62.1363 462.209 62.9291C461.717 64.7333 461.006 67.3303 459.967 71.0208C457.425 80.0146 456.113 86.6574 455.976 91.332C455.785 97.182 457.343 102.157 460.623 106.148C463.084 109.128 467.676 112.737 475.467 112.737C491.432 112.737 502.503 104.071 505.783 88.981C506.494 85.7279 505.701 82.3655 503.624 79.7685C501.574 77.2535 498.594 75.75 495.368 75.6954C496.899 66.4282 498.321 58.6099 499.66 52.3498L499.742 51.9397L499.797 51.5297C500.508 45.2149 499.332 39.8296 496.325 35.4557C495.505 34.2529 494.575 33.2414 493.591 32.4213C494.357 31.7652 495.095 31.0818 495.806 30.3164C499.551 26.2706 501.546 21.76 501.738 16.9487C501.929 13.231 500.672 9.43115 498.129 6.04139C495.177 2.13224 490.994 -2.10926e-05 486.32 -2.10926e-05L486.347 -0.0820312Z" fill="#E8405C"/>
<path d="M580.796 60.1404C579.839 69.1069 576.668 77.3899 571.282 84.9348C563.737 95.5961 553.486 101.692 540.556 103.278C535.991 103.879 531.972 103.524 528.528 102.184C527.817 107.843 527.27 113.392 527.27 118.805C527.27 131.981 532 134.688 535.854 134.715C537.877 134.715 539.08 137.011 538.15 138.816C533.394 148.11 526.423 152.621 517.21 152.32C507.369 151.964 502.667 146.005 503.023 134.414C503.269 127.853 505.292 115.005 509.119 95.8422C512.946 76.6791 514.941 64.487 515.051 59.211C515.406 56.8327 514.559 55.6299 512.536 55.6299C512.262 55.6299 511.852 55.7666 511.333 56.0126C509.283 56.9967 506.932 55.2472 507.424 53.0329C508.873 46.3901 512.837 36.5762 523.689 36.5762C526.942 36.5762 529.512 37.6423 531.425 40.458C533.339 43.2737 534.296 46.5814 534.296 50.4359C534.296 51.502 534.159 52.5955 533.94 53.6616C544.11 42.6449 554.17 37.2049 564.12 37.3143C575.383 37.5603 581.014 44.0118 581.014 56.7233C581.014 57.9262 580.96 59.047 580.85 60.1404H580.796ZM557.259 62.4914C557.368 57.9262 555.536 55.6572 551.682 55.6572C547.472 55.6572 543.235 58.7736 538.916 65.0064C534.952 70.6377 532.792 75.7224 532.437 80.2876C532.328 82.3378 532.683 83.978 533.53 85.2355C534.378 86.493 535.881 87.0671 538.014 86.9304C542.798 86.6844 547.363 83.3493 551.682 76.8705C555.263 71.3485 557.122 66.5646 557.259 62.4914Z" fill="#FFE1E8"/>
<path d="M523.634 36.6034C526.888 36.6034 529.457 37.6695 531.371 40.4852C533.284 43.3009 534.241 46.6086 534.241 50.4631C534.241 51.5292 534.104 52.6227 533.886 53.6888C543.946 42.7815 553.924 37.3415 563.765 37.3415C563.874 37.3415 563.983 37.3415 564.066 37.3415C575.328 37.5875 580.96 44.039 580.96 56.7505C580.96 57.9533 580.905 59.0742 580.796 60.1676C579.839 69.1341 576.668 77.4171 571.282 84.962C563.737 95.6234 553.486 101.719 540.556 103.305C539.134 103.496 537.768 103.578 536.455 103.578C533.558 103.578 530.906 103.114 528.5 102.212C527.79 107.87 527.243 113.42 527.243 118.832C527.243 132.009 531.972 134.715 535.827 134.742C537.85 134.742 539.052 137.038 538.123 138.843C533.53 147.864 526.833 152.374 518.03 152.374C517.757 152.374 517.456 152.374 517.183 152.374C507.342 152.019 502.64 146.06 502.995 134.469C503.241 127.908 505.264 115.06 509.091 95.8967C512.919 76.7337 514.914 64.5415 515.023 59.2655C515.379 56.8872 514.531 55.6844 512.508 55.6844C512.235 55.6844 511.825 55.8211 511.306 56.0671C510.896 56.2585 510.486 56.3405 510.075 56.3405C508.435 56.3405 506.986 54.8643 507.397 53.0874C508.845 46.4446 512.809 36.6307 523.662 36.6307M537.467 86.9576C537.658 86.9576 537.85 86.9576 538.041 86.9576C542.825 86.7116 547.39 83.3765 551.709 76.8977C555.29 71.3757 557.149 66.5917 557.286 62.5186C557.395 57.9533 555.564 55.6844 551.709 55.6844C547.499 55.6844 543.262 58.8008 538.943 65.0336C534.979 70.6649 532.82 75.7495 532.464 80.3148C532.355 82.365 532.71 84.0052 533.558 85.2627C534.323 86.4109 535.635 86.9849 537.494 86.9849M523.689 28.457C511.415 28.457 502.585 36.7947 499.414 51.3652C498.703 54.5909 499.496 57.8987 501.574 60.4683C502.859 62.0812 504.553 63.2567 506.44 63.9401C505.784 69.1341 504.307 78.2645 501.082 94.3112C497.118 114.103 495.068 127.17 494.822 134.195C494.33 150.215 502.585 160.056 516.91 160.603C517.32 160.603 517.702 160.603 518.058 160.603C526.368 160.603 545.449 142.615 545.449 142.615L536.565 126.623C536.565 126.623 535.471 123.671 535.471 118.887C535.471 116.536 535.581 114.13 535.772 111.807C536.018 111.807 536.237 111.807 536.483 111.807C538.15 111.807 539.873 111.697 541.649 111.451C556.849 109.62 569.095 102.321 578.007 89.7186C584.185 81.0802 587.876 71.4303 588.997 61.0424C589.133 59.6482 589.215 58.254 589.215 56.7505C589.215 39.5557 580.14 29.4685 564.284 29.1404H563.792C555.564 29.1404 547.39 32.0381 539.38 37.8062C539.025 37.1501 538.615 36.494 538.178 35.8653C535.854 32.4482 531.453 28.4023 523.662 28.4023L523.689 28.457ZM542.059 76.0503C542.907 74.1093 544.11 72.0044 545.695 69.7901C546.515 68.6147 547.253 67.6852 547.91 66.9198C547.281 68.4233 546.324 70.2549 544.875 72.4691C543.918 73.8907 542.989 75.0935 542.059 76.0776V76.0503Z" fill="#E8405C"/>
</g>
<defs>
<clipPath id="clip0_695_238">
<rect width="600" height="171.429" fill="white"/>
</clipPath>
</defs>
</svg>
