<svg width="40" height="40" viewBox="0 0 40 40" fill="none" xmlns="http://www.w3.org/2000/svg">
<path d="M20 40C31.0457 40 40 31.0457 40 20C40 8.9543 31.0457 0 20 0C8.9543 0 0 8.9543 0 20C0 31.0457 8.9543 40 20 40Z" fill="#FF5572"/>
<path d="M21.5881 17.0974C21.3475 16.9357 21.067 16.8919 20.8078 16.9523C20.5514 17.0119 20.3163 17.1736 20.163 17.423C20.009 17.6739 19.967 17.9657 20.0241 18.2352C20.0805 18.5048 20.2352 18.752 20.4744 18.9123C21.4692 19.5786 22.0625 20.7099 22.0625 21.9375C22.0625 22.8978 21.705 23.7998 21.056 24.4782L16.931 28.7907C16.2814 29.47 15.4179 29.8438 14.5 29.8438C12.6046 29.8438 11.0625 28.2316 11.0625 26.25C11.0625 25.2898 11.42 24.3877 12.069 23.7093L14.0257 21.663C14.2319 21.4474 14.3323 21.1634 14.3282 20.881C14.3234 20.6114 14.223 20.344 14.0257 20.1385C13.8242 19.9279 13.5602 19.8222 13.2969 19.8222C13.0329 19.8222 12.7689 19.9271 12.5682 20.1385L10.6116 22.1848C9.572 23.2701 9 24.714 9 26.25C9 29.4204 11.4675 32 14.5 32C15.9692 32 17.3504 31.402 18.3892 30.3153L22.5142 26.0028C23.553 24.9182 24.125 23.4735 24.125 21.9375C24.125 19.9717 23.177 18.1626 21.5881 17.0974ZM25.5 9C24.0308 9 22.6496 9.598 21.6108 10.6848L17.4858 14.9973C16.447 16.0818 15.875 17.5265 15.875 19.0618C15.875 21.0276 16.8231 22.8374 18.4119 23.9026C18.6525 24.0635 18.933 24.1074 19.1922 24.047C19.4486 23.9881 19.6837 23.8264 19.837 23.577C19.991 23.3254 20.033 23.0336 19.9759 22.7641C19.9195 22.4945 19.7649 22.2473 19.5256 22.0877C18.5315 21.4207 17.9375 20.2894 17.9375 19.0618C17.9375 18.1015 18.295 17.1995 18.944 16.521L23.069 12.2085C23.7187 11.53 24.5822 11.1563 25.5 11.1563C27.3955 11.1563 28.9375 12.7684 28.9375 14.7493C28.9375 15.7095 28.58 16.6116 27.931 17.2901L25.9744 19.3356C25.7681 19.5513 25.6677 19.8352 25.6719 20.1176C25.6767 20.3872 25.7771 20.6546 25.9744 20.8601C26.1758 21.0707 26.4398 21.1756 26.7038 21.1756C26.9678 21.1756 27.2318 21.0707 27.4326 20.8601L29.3892 18.8138C30.428 17.7299 31 16.2853 31 14.7493C31 11.5796 28.5325 9 25.5 9Z" fill="white"/>
</svg>
